# xmcd
#
# Track frame offsets:
#	150
#	11664
#	24267
#	39310
#	55361
#	69418
#	84756
#	100899
#	118864
#	132759
#
# Disc length: 2012 seconds
#
# Revision: 1
# Processed by: cddbd v1.5.2PL0 Copyright (c) Steve Scherf et al.
# Submitted via: audiograbber 1.83.01
#
DISCID=7507da0a
DTITLE=Aaron Vance - Talk Of The Town
DYEAR=2014
DGENRE=Country
TTITLE0=Honky Tonk Train
TTITLE1=Talk Of The Town
TTITLE2=Next Stop Nashville
TTITLE3=Solid Country Gold 
TTITLE4=Please Pretend You Know Me
TTITLE5=My Better Half
TTITLE6=Mississippi Pride
TTITLE7=Stone Cold Rolling Stone
TTITLE8=Southern Belle
TTITLE9=Too Far Gone
EXTD=
EXTT0=
EXTT1=
EXTT2=
EXTT3=
EXTT4=
EXTT5=
EXTT6=
EXTT7=
EXTT8=
EXTT9=
PLAYORDER=
